<?xml version="1.0" encoding="UTF-8"?>
<svg width="128px" height="128px" viewBox="0 0 128 128" version="1.1" xmlns="http://www.w3.org/2000/svg" xmlns:xlink="http://www.w3.org/1999/xlink">
    <title>Group</title>
    <defs>
        <linearGradient x1="38.3770544%" y1="100%" x2="83.1501709%" y2="2.85764784%" id="linearGradient-1">
            <stop stop-color="#3538F4" offset="0%"></stop>
            <stop stop-color="#0C08C5" offset="100%"></stop>
        </linearGradient>
    </defs>
    <g id="Page-1" stroke="none" stroke-width="1" fill="none" fill-rule="evenodd">
        <g id="Artboard" transform="translate(-18.000000, -18.000000)">
            <g id="Group" transform="translate(18.500000, 18.500000)">
                <circle id="Oval" fill="url(#linearGradient-1)" cx="63.5" cy="63.5" r="63.5"></circle>
                <path d="M112.66081,80.3186116 L105.097464,83.3999846 C107.681216,78.3591069 109.84593,73.4462276 111.555904,68.7309929 C113.106155,64.4543409 114.248643,60.4129801 114.983368,56.6313807 C116.031902,64.4016357 115.340396,72.4956514 112.66081,80.3186116 L112.66081,80.3186116 Z M86.6898768,110.031178 L73.6170324,104.506542 C74.2690774,103.59173 74.9248806,102.643036 75.5844419,101.666107 L109.381794,87.8968691 C104.229323,97.6172172 96.2375443,105.28018 86.6898768,110.031178 L86.6898768,110.031178 Z M67.7862093,115.256524 C68.3818815,113.916306 69.0452011,112.212798 69.8475734,110.06506 C69.9415281,109.816593 70.0336036,109.562479 70.1275582,109.306482 L78.9461379,113.033494 C75.3063363,114.187361 71.5744592,114.932764 67.7862093,115.256524 L67.7862093,115.256524 Z M66.5046684,99.1230806 L66.3956811,99.1682565 L63.6390528,100.290125 L63.5,100.346595 L63.3609472,100.290125 L60.6043189,99.1682565 L60.4953316,99.1230806 L59.3321735,98.6487337 C58.3663201,95.6407715 57.3534894,92.3015195 56.346296,88.7138 C57.7030006,88.5349787 59.1292315,88.410745 60.6249889,88.3410988 C60.6606917,88.3392165 60.6963944,88.3354518 60.7339763,88.3354518 C61.6321824,88.2940406 62.5529375,88.2752173 63.5,88.273335 C64.4451834,88.2752173 65.3696967,88.2940406 66.2660237,88.3354518 C66.3036056,88.3354518 66.3393083,88.3392165 66.3750111,88.3410988 C67.8707685,88.410745 69.2969994,88.5349787 70.653704,88.7138 C69.6446315,92.3015195 68.6336799,95.6407715 67.6697056,98.6487337 L66.5046684,99.1230806 Z M48.0538621,113.033494 L56.8724418,109.306482 C56.9645173,109.562479 57.0584719,109.816593 57.1524266,110.06506 C57.9547989,112.212798 58.6181185,113.916306 59.2137907,115.256524 C55.4255408,114.932764 51.6955428,114.187361 48.0538621,113.033494 L48.0538621,113.033494 Z M17.6182058,87.8968691 L51.4174372,101.666107 C52.0751194,102.643036 52.7309226,103.59173 53.3829676,104.506542 L40.3101232,110.031178 C30.7624557,105.28018 22.7706766,97.6172172 17.6182058,87.8968691 L17.6182058,87.8968691 Z M12.0147528,56.6313807 C12.751357,60.4129801 13.893845,64.4543409 15.4440961,68.7309929 C17.15407,73.4462276 19.3206633,78.3591069 21.902536,83.3999846 L14.3391899,80.3186116 C11.6596044,72.4956514 10.9662194,64.4016357 12.0147528,56.6313807 L12.0147528,56.6313807 Z M17.7403468,39.9595907 C18.1368352,38.6137253 18.6535856,37.377035 19.2924769,36.2419905 L19.2868397,36.2363435 C24.7474816,27.3423379 32.9196536,20.0106655 43.2339906,15.6530734 C44.6808916,15.0413164 46.1465835,14.5010879 47.62355,14.0248586 C47.2439734,14.5952044 46.8831877,15.1937851 46.543072,15.8206007 C44.9853046,18.6949174 43.8428165,22.2073438 43.1137287,26.3183508 C41.2722184,27.291515 39.6280127,28.4359712 38.1905072,29.749837 C33.2428574,34.2711918 30.7361484,40.6786405 30.7361484,48.8008911 C30.7361484,55.0257538 32.2225104,62.282133 35.1538942,70.3686193 C37.5497367,76.9718303 40.8325108,83.9646834 44.9138991,91.1514163 C45.3179039,91.8610545 45.727546,92.5706926 46.1409463,93.2746837 L30.31899,86.8277061 C29.2216001,84.900201 28.1223312,82.8785794 27.0437323,80.772253 C18.3172281,63.7315265 15.0156631,49.2375914 17.7403468,39.9595907 L17.7403468,39.9595907 Z M49.3579521,84.9905528 C49.2282948,85.517605 49.1080328,86.0615981 48.9971664,86.6206499 C48.2436504,85.2578435 47.4938927,83.8555083 46.7535303,82.4098794 C38.0289052,65.3710353 34.7254612,50.8752179 37.4520239,41.5972171 C38.3821746,38.434904 39.9718866,35.8749363 42.2775327,33.8401384 C42.1986108,35.2989435 42.1553917,36.8066892 42.1553917,38.3727872 C42.1553917,54.2483519 46.176649,72.7949417 49.3579521,84.9905528 L49.3579521,84.9905528 Z M48.3695496,30.361594 C48.3751869,30.3597116 48.3827033,30.355947 48.3883405,30.3540646 C51.7462783,29.0326695 55.837062,28.2515029 60.6249889,28.0275057 C60.6606917,28.0256234 60.6963944,28.0218587 60.7339763,28.0199764 C61.6321824,27.9804475 62.5529375,27.9597419 63.5,27.9597419 C64.4451834,27.9597419 65.3696967,27.9804475 66.2660237,28.0199764 C66.3036056,28.0218587 66.3393083,28.0256234 66.3750111,28.0275057 C71.162938,28.2515029 75.2537217,29.0326695 78.6097804,30.3540646 C78.6172967,30.355947 78.6248131,30.3597116 78.6323295,30.361594 C79.8443439,41.0569886 78.4275084,55.9763301 74.4024929,73.905516 C73.6940752,77.0602997 72.9461965,80.1209671 72.181406,83.059283 C70.3530492,82.7976392 68.4232216,82.6263473 66.3956811,82.5454071 C65.4899586,82.5096429 64.5654453,82.4889372 63.6183828,82.4889372 C63.5789219,82.4889372 63.5394609,82.4908196 63.5,82.4908196 C63.45866,82.4908196 63.4210781,82.4889372 63.3797381,82.4889372 C62.4345547,82.4889372 61.5100414,82.5096429 60.6043189,82.5454071 C58.5767784,82.6263473 56.6469508,82.7976392 54.818594,83.059283 C54.0556826,80.1209671 53.3078039,77.0602997 52.5993862,73.905516 C48.5724916,55.9763301 47.1556561,41.0569886 48.3695496,30.361594 L48.3695496,30.361594 Z M51.3948881,19.0393837 C53.4863177,14.9170827 56.5229307,12.5321715 60.6249889,11.8018278 C61.5081623,11.6437121 62.4420711,11.562772 63.4285945,11.557125 L63.5,11.557125 L63.5714055,11.557125 C64.5560498,11.562772 65.4899586,11.6437121 66.3750111,11.8018278 C70.4770693,12.5321715 73.5136823,14.9170827 75.6051119,19.0393837 C76.3116506,20.4323073 76.9054437,22.0285225 77.3940077,23.8035589 C74.1319037,22.9188642 70.4601575,22.3936943 66.3956811,22.231814 C65.4899586,22.1960498 64.5654453,22.1753442 63.6183828,22.1753442 C63.5789219,22.1753442 63.5394609,22.1772265 63.5,22.1772265 C63.45866,22.1772265 63.4210781,22.1753442 63.3797381,22.1753442 C62.4345547,22.1753442 61.5100414,22.1960498 60.6043189,22.231814 C56.5398425,22.3936943 52.8699754,22.9188642 49.6059923,23.8035589 C50.0945563,22.0285225 50.6883494,20.4323073 51.3948881,19.0393837 L51.3948881,19.0393837 Z M84.7224673,33.8401384 C87.0281134,35.8749363 88.6178254,38.434904 89.5479761,41.5972171 C92.2745388,50.8752179 88.9710948,65.3710353 80.2464697,82.4098794 C79.5061073,83.8555083 78.7563496,85.2578435 78.0047127,86.6206499 C77.8919672,86.0615981 77.7717052,85.517605 77.6401688,84.9905528 C80.823351,72.7949417 84.8446083,54.2483519 84.8446083,38.3727872 C84.8446083,36.8066892 84.8013892,35.2989435 84.7224673,33.8401384 L84.7224673,33.8401384 Z M83.7660094,15.6530734 C94.0784674,20.0106655 102.252518,27.3423379 107.71316,36.2363435 L107.705644,36.2419905 C108.346414,37.377035 108.863165,38.6137253 109.257774,39.9595907 C111.986216,49.2375914 108.680893,63.7315265 99.9562677,80.772253 C98.8776688,82.8785794 97.7783999,84.900201 96.68101,86.8277061 L80.8590537,93.2746837 C81.272454,92.5706926 81.6820961,91.8610545 82.0861009,91.1514163 C86.1674892,83.9646834 89.4502633,76.9718303 91.8461058,70.3686193 C94.7774896,62.282133 96.2638516,55.0257538 96.2638516,48.8008911 C96.2638516,40.6786405 93.7552635,34.2711918 88.8113719,29.749837 C87.3719873,28.4359712 85.7277816,27.291515 83.8862713,26.3183508 C83.1553044,22.2073438 82.0146954,18.6949174 80.456928,15.8206007 C80.1186914,15.1937851 79.7560266,14.5952044 79.37645,14.0248586 C80.8552955,14.5010879 82.3191084,15.0413164 83.7660094,15.6530734 L83.7660094,15.6530734 Z M112.452231,32.9253264 C112.347002,32.7502698 112.241773,32.5714485 112.130906,32.3982742 L112.127148,32.4039212 C106.063317,22.8793353 97.1620576,15.0375517 86.0077664,10.3241993 C78.8615787,7.30494326 71.3376936,5.7746096 63.642811,5.7746096 L63.5751637,5.7746096 C63.5526146,5.7746096 63.5319446,5.77272727 63.5093955,5.77272727 C63.5075164,5.77272727 63.5037582,5.7746096 63.5,5.7746096 C63.4962418,5.7746096 63.4924836,5.77272727 63.4906045,5.77272727 C63.4680554,5.77272727 63.4473854,5.7746096 63.4248363,5.7746096 L63.357189,5.7746096 C55.6623064,5.7746096 48.1384213,7.30494326 40.9903546,10.3241993 C29.8379424,15.0375517 20.9366826,22.8793353 14.8728521,32.4039212 L14.8690939,32.3982742 C14.7582275,32.5714485 14.6529983,32.7502698 14.5477691,32.9253264 C6.44888175,45.9453976 3.60581526,62.0223716 7.49553611,77.5308821 C8.10060379,79.9440281 8.8710316,82.3421156 9.80681951,84.7138504 C9.96654235,85.1204335 10.1300234,85.5251343 10.2991417,85.9298351 C15.1378041,97.415808 23.3644697,106.723926 33.5359958,112.892319 C35.6725236,114.189244 37.8954897,115.346876 40.1898613,116.355805 C47.3604771,119.510588 55.2338734,121.227273 63.4041663,121.227273 C63.4361109,121.227273 63.4680554,121.22539 63.5,121.22539 C63.5319446,121.22539 63.5638891,121.227273 63.5958337,121.227273 C71.7661266,121.227273 79.6395229,119.510588 86.8101387,116.355805 C89.1045103,115.346876 91.3274764,114.189244 93.4658833,112.892319 C103.633651,106.723926 111.864075,97.415808 116.698979,85.9298351 C116.869977,85.5251343 117.033458,85.1204335 117.19318,84.7138504 C118.130847,82.3421156 118.899396,79.9440281 119.504464,77.5308821 C123.394185,62.0223716 120.551118,45.9453976 112.452231,32.9253264 L112.452231,32.9253264 Z" id="Fill-1" fill="#FEFEFE"></path>
            </g>
        </g>
    </g>
</svg>